<svg width="24" height="24" viewBox="0 0 24 24" fill="none" xmlns="http://www.w3.org/2000/svg">
<path d="M4.89552 14.2057V20.2536C4.89552 21.9187 6.06965 23 7.85075 23H19.0448C20.8259 23 22 21.9187 22 20.2536V3.74641C22 2.09091 20.8259 1 19.0448 1H7.85075C6.06965 1 4.89552 2.09091 4.89552 3.74641V9.80383H6.84577V4.05263C6.84577 3.30622 7.30348 2.8756 8.1194 2.8756H18.7761C19.592 2.8756 20.0498 3.30622 20.0498 4.05263V19.9474C20.0498 20.6938 19.592 21.1244 18.7761 21.1244H8.1194C7.30348 21.1244 6.84577 20.6938 6.84577 19.9474V14.2057H4.89552ZM2.83582 12.799H9.38308L11.3035 12.7033L9.33333 14.3684L8.79602 14.9043C8.64677 15.0574 8.54726 15.2679 8.54726 15.4976C8.54726 15.9474 8.88557 16.2632 9.34328 16.2632C9.57214 16.2632 9.78109 16.177 9.9403 16.0239L13.4627 12.6555C13.6716 12.445 13.791 12.2153 13.791 11.9952C13.791 11.7751 13.6716 11.5359 13.4627 11.3349L9.9403 7.96651C9.78109 7.8134 9.57214 7.72727 9.34328 7.72727C8.88557 7.72727 8.54726 8.04306 8.54726 8.49282C8.54726 8.72249 8.64677 8.93301 8.79602 9.08612L9.33333 9.62201L11.3035 11.2871L9.38308 11.1914H2.83582C2.32836 11.1914 2 11.5646 2 11.9952C2 12.4258 2.32836 12.799 2.83582 12.799Z" fill="#F56B6C"/>
</svg>
