<svg width="343" height="252" viewBox="0 0 343 252" fill="none" xmlns="http://www.w3.org/2000/svg">
<rect width="343" height="252" rx="16" fill="white" fill-opacity="0.5"/>
<path d="M133.087 139.562C135.491 141.874 140.105 142.413 143.672 139.177C144.951 138.059 147.471 135.401 151.426 131.433C170.811 111.938 182.752 99.6473 184.884 101.574C186.59 103.115 179.999 112.4 173.408 121.493C161.351 138.098 151.193 150.234 158.831 157.824C164.801 163.757 173.874 158.363 188.413 145.688C196.205 138.868 201.633 133.821 202.99 135.131C203.843 135.979 201.788 139.331 199.152 143.839C195.43 150.234 190.467 157.477 195.314 162.293C198.687 165.645 205.123 164.181 212.605 156.822C214.156 155.32 214.505 153.509 213.187 152.238C211.985 151.043 210.279 151.236 209 152.392C204.153 157.015 200.548 159.018 199.966 158.363C199.23 157.67 201.284 154.01 204.851 147.691C209.775 138.946 212.799 133.089 208.263 128.697C202.176 122.841 195.042 129.044 182.675 139.87C172.168 149.04 167.864 151.429 166.895 150.388C165.499 148.924 169.376 143.723 180.852 127.773C193.259 110.589 200.625 99.4162 193.647 92.6353C184.536 83.8125 172.284 90.3236 141.927 120.183C137.507 124.498 134.754 127.118 133.397 128.736C129.869 132.781 130.645 137.25 133.087 139.562Z" fill="white" fill-opacity="0.5"/>
</svg>
