<svg width="83" height="75" viewBox="0 0 83 75" fill="none" xmlns="http://www.w3.org/2000/svg">
<path d="M2.08729 50.562C4.49105 52.8736 9.10472 53.413 12.6716 50.1767C13.951 49.0594 16.4711 46.401 20.4257 42.4326C39.8109 22.9376 51.7521 10.6473 53.8845 12.5737C55.5904 14.1148 48.9994 23.4 42.4085 32.4925C30.3509 49.0979 20.193 61.2341 27.8308 68.8241C33.8014 74.7574 42.8737 69.3635 57.4126 56.6879C65.2054 49.8685 70.6333 44.8214 71.9903 46.1313C72.8432 46.9789 70.7884 50.3308 68.152 54.8386C64.43 61.2341 59.4674 68.4773 64.3137 73.2933C67.6867 76.6452 74.1226 75.1812 81.6053 67.8224C83.1561 66.3198 83.5051 64.509 82.1869 63.2376C80.985 62.0432 79.2791 62.2359 77.9997 63.3917C73.1534 68.015 69.5477 70.0185 68.9662 69.3635C68.2295 68.67 70.2844 65.0099 73.8512 58.6913C78.7751 49.9455 81.7992 44.0893 77.263 39.6972C71.1761 33.841 64.0423 40.0439 51.6746 50.8702C41.1678 60.0398 36.8643 62.4285 35.895 61.3883C34.4993 59.9242 38.3763 54.723 49.8524 38.7725C62.2589 21.5892 69.6253 10.4162 62.6466 3.63529C53.5356 -5.18755 41.2841 1.32363 10.9269 31.1826C6.50711 35.4977 3.75441 38.1175 2.39745 39.7357C-1.13065 43.7811 -0.355246 48.2503 2.08729 50.562Z" fill="white" fill-opacity="0.5"/>
</svg>
