<svg width="70" height="70" viewBox="0 0 70 70" fill="none" xmlns="http://www.w3.org/2000/svg">
<path d="M34.9831 70C54.1663 70 70 54.1586 70 35C70 15.8414 54.1324 0 34.9492 0C15.7999 0 0 15.8414 0 35C0 54.1586 15.8337 70 34.9831 70ZM34.9492 40.5174C28.318 40.4836 23.1754 34.9323 23.1754 27.587C23.1078 20.6818 28.3519 14.9275 34.9492 14.9275C41.5466 14.9275 46.7231 20.6818 46.7231 27.587C46.7231 34.9323 41.5805 40.5851 34.9492 40.5174ZM34.9492 64.2118C27.3707 64.2118 19.3185 61.0638 14.2098 55.5803C18.1005 49.7582 25.8144 46.3733 34.9492 46.3733C43.9826 46.3733 51.7641 49.6905 55.6887 55.5803C50.58 61.0638 42.5278 64.2118 34.9492 64.2118Z" fill="#AEAFB4"/>
</svg>
